<?xml version="1.0" encoding="UTF-8" standalone="no"?>
<!DOCTYPE svg PUBLIC "-//W3C//DTD SVG 1.1//EN" "http://www.w3.org/Graphics/SVG/1.1/DTD/svg11.dtd">
<svg width="411.43" height="411.43" viewBox="0.00 0.00 2000.00 2000.00" xmlns="http://www.w3.org/2000/svg" xmlns:xlink="http://www.w3.org/1999/xlink">
<g stroke-linecap="round" id="Calque_2">
<path d="M129.70,132.02 C129.60,131.15 129.94,130.24 130.86,129.70 C133.57,128.34 139.39,123.40 142.59,121.16 C145.02,119.47 160.47,110.57 165.73,108.34 C170.53,106.34 187.25,102.36 191.58,101.66 C201.10,100.16 235.31,97.88 249.44,97.05 C284.78,95.52 353.85,92.96 387.58,91.93 C418.69,91.21 484.26,90.09 510.18,90.30 C537.26,90.20 597.27,90.43 630.20,90.76 C663.04,91.59 728.30,93.48 760.72,94.53 C776.87,95.17 808.19,96.34 823.37,96.87 C839.02,97.10 871.51,97.27 888.35,97.19 C918.57,96.52 981.82,94.83 993.94,94.94 C1001.76,94.95 1010.78,94.96 1011.97,94.96" fill="none" stroke="rgb(64, 60, 58)" stroke-width="50.00" stroke-opacity="1.00" stroke-linejoin="round"/>
<path d="M1884.98,132.02 C1885.09,131.15 1884.75,130.24 1883.83,129.70 C1881.11,128.34 1875.30,123.40 1872.09,121.16 C1869.66,119.47 1854.21,110.57 1848.95,108.34 C1844.16,106.34 1827.44,102.36 1823.10,101.66 C1813.59,100.16 1779.38,97.88 1765.25,97.05 C1729.90,95.52 1660.83,92.96 1627.11,91.93 C1595.99,91.21 1530.43,90.09 1504.50,90.30 C1477.43,90.20 1417.42,90.43 1384.49,90.76 C1351.64,91.59 1286.38,93.48 1253.96,94.53 C1237.81,95.17 1206.49,96.34 1191.32,96.87 C1175.66,97.10 1143.17,97.27 1126.34,97.19 C1096.12,96.52 1032.87,94.83 1020.75,94.94 C1012.92,94.95 1003.91,94.96 1002.72,94.96" fill="none" stroke="rgb(64, 60, 58)" stroke-width="50.00" stroke-opacity="1.00" stroke-linejoin="round"/>
<path d="M1882.56,129.60 C1883.43,129.49 1884.34,129.84 1884.88,130.76 C1886.24,133.47 1891.18,139.28 1893.42,142.49 C1895.12,144.92 1904.02,160.37 1906.24,165.63 C1908.24,170.43 1912.23,187.15 1912.92,191.48 C1914.42,201.00 1916.71,235.21 1917.53,249.33 C1919.06,284.68 1921.62,353.75 1922.65,387.47 C1923.37,418.59 1924.50,484.15 1924.28,510.08 C1924.38,537.15 1924.15,597.16 1923.82,630.10 C1922.99,662.94 1921.11,728.20 1920.05,760.62 C1919.41,776.77 1918.24,808.09 1917.71,823.26 C1917.48,838.92 1917.32,871.41 1917.39,888.25 C1918.06,918.46 1919.75,981.71 1919.64,993.84 C1919.63,1001.66 1919.62,1010.67 1919.62,1011.86" fill="none" stroke="rgb(64, 60, 58)" stroke-width="50.00" stroke-opacity="1.00" stroke-linejoin="round"/>
<path d="M132.12,129.60 C131.25,129.49 130.34,129.84 129.80,130.76 C128.45,133.47 123.51,139.28 121.26,142.49 C119.57,144.92 110.67,160.37 108.45,165.63 C106.44,170.43 102.46,187.15 101.77,191.48 C100.26,201.00 97.98,235.21 97.15,249.33 C95.62,284.68 93.07,353.75 92.04,387.47 C91.32,418.59 90.19,484.15 90.40,510.08 C90.30,537.15 90.53,597.16 90.86,630.10 C91.69,662.94 93.58,728.20 94.64,760.62 C95.28,776.77 96.44,808.09 96.97,823.26 C97.21,838.92 97.37,871.41 97.29,888.25 C96.63,918.46 94.94,981.71 95.04,993.84 C95.06,1001.66 95.07,1010.67 95.06,1011.86" fill="none" stroke="rgb(64, 60, 58)" stroke-width="50.00" stroke-opacity="1.00" stroke-linejoin="round"/>
<path d="M1884.98,1882.46 C1885.09,1883.33 1884.75,1884.24 1883.83,1884.78 C1881.11,1886.13 1875.30,1891.08 1872.09,1893.32 C1869.66,1895.01 1854.21,1903.91 1848.95,1906.14 C1844.16,1908.14 1827.44,1912.12 1823.10,1912.82 C1813.59,1914.32 1779.38,1916.60 1765.25,1917.43 C1729.90,1918.96 1660.83,1921.52 1627.11,1922.54 C1595.99,1923.27 1530.43,1924.39 1504.50,1924.18 C1477.43,1924.28 1417.42,1924.05 1384.49,1923.72 C1351.64,1922.89 1286.38,1921.00 1253.96,1919.95 C1237.81,1919.30 1206.49,1918.14 1191.32,1917.61 C1175.66,1917.37 1143.17,1917.21 1126.34,1917.29 C1096.12,1917.95 1032.87,1919.65 1020.75,1919.54 C1012.92,1919.53 1003.91,1919.52 1002.72,1919.52" fill="none" stroke="rgb(64, 60, 58)" stroke-width="50.00" stroke-opacity="1.00" stroke-linejoin="round"/>
<path d="M129.70,1882.46 C129.60,1883.33 129.94,1884.24 130.86,1884.78 C133.57,1886.13 139.39,1891.08 142.59,1893.32 C145.02,1895.01 160.47,1903.91 165.73,1906.14 C170.53,1908.14 187.25,1912.12 191.58,1912.82 C201.10,1914.32 235.31,1916.60 249.44,1917.43 C284.78,1918.96 353.85,1921.52 387.58,1922.54 C418.69,1923.27 484.26,1924.39 510.18,1924.18 C537.26,1924.28 597.27,1924.05 630.20,1923.72 C663.04,1922.89 728.30,1921.00 760.72,1919.95 C776.87,1919.30 808.19,1918.14 823.37,1917.61 C839.02,1917.37 871.51,1917.21 888.35,1917.29 C918.57,1917.95 981.82,1919.65 993.94,1919.54 C1001.76,1919.53 1010.78,1919.52 1011.97,1919.52" fill="none" stroke="rgb(64, 60, 58)" stroke-width="50.00" stroke-opacity="1.00" stroke-linejoin="round"/>
<path d="M132.12,1884.88 C131.25,1884.99 130.34,1884.64 129.80,1883.72 C128.45,1881.01 123.51,1875.20 121.26,1871.99 C119.57,1869.56 110.67,1854.11 108.45,1848.85 C106.44,1844.05 102.46,1827.33 101.77,1823.00 C100.26,1813.48 97.98,1779.27 97.15,1765.15 C95.62,1729.80 93.07,1660.73 92.04,1627.01 C91.32,1595.89 90.19,1530.33 90.40,1504.40 C90.30,1477.32 90.53,1417.32 90.86,1384.38 C91.69,1351.54 93.58,1286.28 94.64,1253.86 C95.28,1237.71 96.44,1206.39 96.97,1191.22 C97.21,1175.56 97.37,1143.07 97.29,1126.23 C96.63,1096.02 94.94,1032.77 95.04,1020.64 C95.06,1012.82 95.07,1003.80 95.06,1002.61" fill="none" stroke="rgb(64, 60, 58)" stroke-width="50.00" stroke-opacity="1.00" stroke-linejoin="round"/>
<path d="M1882.56,1884.88 C1883.43,1884.99 1884.34,1884.64 1884.88,1883.72 C1886.24,1881.01 1891.18,1875.20 1893.42,1871.99 C1895.12,1869.56 1904.02,1854.11 1906.24,1848.85 C1908.24,1844.05 1912.23,1827.33 1912.92,1823.00 C1914.42,1813.48 1916.71,1779.27 1917.53,1765.15 C1919.06,1729.80 1921.62,1660.73 1922.65,1627.01 C1923.37,1595.89 1924.50,1530.33 1924.28,1504.40 C1924.38,1477.32 1924.15,1417.32 1923.82,1384.38 C1922.99,1351.54 1921.11,1286.28 1920.05,1253.86 C1919.41,1237.71 1918.24,1206.39 1917.71,1191.22 C1917.48,1175.56 1917.32,1143.07 1917.39,1126.23 C1918.06,1096.02 1919.75,1032.77 1919.64,1020.64 C1919.63,1012.82 1919.62,1003.80 1919.62,1002.61" fill="none" stroke="rgb(64, 60, 58)" stroke-width="50.00" stroke-opacity="1.00" stroke-linejoin="round"/>
<path d="M233.92,312.67 L907.91,312.67" fill="none" stroke="rgb(64, 60, 58)" stroke-width="150.00" stroke-opacity="1.00" stroke-linejoin="round"/>
<path d="M233.92,1701.19 L907.91,1701.19" fill="none" stroke="rgb(64, 60, 58)" stroke-width="150.00" stroke-opacity="1.00" stroke-linejoin="round"/>
<path d="M917.17,314.99 L238.56,1693.06" fill="none" stroke="rgb(64, 60, 58)" stroke-width="150.00" stroke-opacity="1.00" stroke-linejoin="round"/>
<path d="M1166.15,1070.03 C1172.50,1070.05 1188.37,1072.83 1195.75,1075.22 C1203.94,1077.90 1215.24,1083.61 1222.27,1088.36 C1228.28,1092.44 1240.08,1102.17 1245.71,1107.68 C1250.66,1112.56 1260.03,1123.77 1265.18,1130.72 C1268.80,1135.77 1278.37,1150.55 1282.51,1157.56 C1286.42,1164.47 1292.85,1177.74 1295.91,1184.50 C1301.90,1198.42 1312.76,1228.67 1316.71,1242.84 C1318.70,1250.39 1322.36,1265.92 1324.13,1273.78 C1327.27,1289.70 1331.37,1314.99 1333.65,1337.23 C1334.91,1353.32 1336.42,1390.14 1336.28,1401.46 C1335.79,1417.49 1333.65,1449.72 1332.03,1465.52 C1330.77,1475.96 1328.62,1489.23 1327.27,1497.24 C1324.13,1513.17 1315.69,1548.70 1312.38,1558.97 C1307.42,1573.95 1295.98,1602.63 1289.72,1615.79 C1286.42,1622.47 1278.37,1636.40 1274.10,1643.22 C1268.80,1651.18 1260.03,1663.18 1255.97,1668.09 C1250.66,1674.39 1240.08,1684.78 1234.20,1689.64 C1228.28,1694.51 1215.24,1703.34 1210.21,1705.89 C1203.94,1709.05 1188.37,1714.12 1180.91,1715.44 C1177.20,1716.08 1168.89,1716.91 1166.15,1716.92 C1159.80,1716.90 1143.93,1714.12 1136.55,1711.73 C1128.36,1709.05 1117.06,1703.34 1110.03,1698.59 C1104.02,1694.51 1092.22,1684.78 1086.59,1679.27 C1081.64,1674.39 1072.27,1663.18 1067.12,1656.22 C1063.50,1651.18 1053.93,1636.40 1049.79,1629.39 C1045.88,1622.47 1039.45,1609.21 1036.39,1602.45 C1030.40,1588.53 1019.54,1558.27 1015.59,1544.11 C1013.60,1536.56 1009.94,1521.03 1008.17,1513.17 C1005.03,1497.24 1000.93,1471.96 998.65,1449.72 C997.39,1433.63 995.88,1396.81 996.02,1385.49 C996.51,1369.45 998.65,1337.23 1000.27,1321.43 C1001.53,1310.99 1003.68,1297.72 1005.03,1289.70 C1008.17,1273.78 1016.61,1238.25 1019.92,1227.98 C1024.88,1213.00 1036.32,1184.31 1042.58,1171.16 C1045.88,1164.47 1053.93,1150.55 1058.20,1143.73 C1063.50,1135.77 1072.27,1123.77 1076.33,1118.86 C1081.64,1112.56 1092.22,1102.17 1098.10,1097.31 C1104.02,1092.44 1117.06,1083.61 1122.09,1081.05 C1128.36,1077.90 1143.93,1072.83 1151.39,1071.51 C1155.10,1070.86 1163.41,1070.04 1166.15,1070.03 Z" fill="none" stroke="rgb(64, 60, 58)" stroke-width="120.00" stroke-opacity="1.00" stroke-linejoin="round"/>
<path d="M1638.15,1066.03 C1644.50,1066.05 1660.37,1068.83 1667.75,1071.22 C1675.94,1073.90 1687.24,1079.61 1694.27,1084.36 C1700.28,1088.44 1712.08,1098.17 1717.71,1103.68 C1722.66,1108.56 1732.03,1119.77 1737.18,1126.72 C1740.80,1131.77 1750.37,1146.55 1754.51,1153.56 C1758.42,1160.47 1764.85,1173.74 1767.91,1180.50 C1773.90,1194.42 1784.76,1224.67 1788.71,1238.84 C1790.70,1246.39 1794.36,1261.92 1796.13,1269.78 C1799.27,1285.70 1803.37,1310.99 1805.65,1333.23 C1806.91,1349.32 1808.42,1386.14 1808.28,1397.46 C1807.79,1413.49 1805.65,1445.72 1804.03,1461.52 C1802.77,1471.96 1800.62,1485.23 1799.27,1493.24 C1796.13,1509.17 1787.69,1544.70 1784.38,1554.97 C1779.42,1569.95 1767.98,1598.63 1761.72,1611.79 C1758.42,1618.47 1750.37,1632.40 1746.10,1639.22 C1740.80,1647.18 1732.03,1659.18 1727.97,1664.09 C1722.66,1670.39 1712.08,1680.78 1706.20,1685.64 C1700.28,1690.51 1687.24,1699.34 1682.21,1701.89 C1675.94,1705.05 1660.37,1710.12 1652.91,1711.44 C1649.20,1712.08 1640.89,1712.91 1638.15,1712.92 C1631.80,1712.90 1615.93,1710.12 1608.55,1707.73 C1600.36,1705.05 1589.06,1699.34 1582.03,1694.59 C1576.02,1690.51 1564.22,1680.78 1558.59,1675.27 C1553.64,1670.39 1544.27,1659.18 1539.12,1652.22 C1535.50,1647.18 1525.93,1632.40 1521.79,1625.39 C1517.88,1618.47 1511.45,1605.21 1508.39,1598.45 C1502.40,1584.53 1491.54,1554.27 1487.59,1540.11 C1485.60,1532.56 1481.94,1517.03 1480.17,1509.17 C1477.03,1493.24 1472.93,1467.96 1470.65,1445.72 C1469.39,1429.63 1467.88,1392.81 1468.02,1381.49 C1468.51,1365.45 1470.65,1333.23 1472.27,1317.43 C1473.53,1306.99 1475.68,1293.72 1477.03,1285.70 C1480.17,1269.78 1488.61,1234.25 1491.92,1223.98 C1496.88,1209.00 1508.32,1180.31 1514.58,1167.16 C1517.88,1160.47 1525.93,1146.55 1530.20,1139.73 C1535.50,1131.77 1544.27,1119.77 1548.33,1114.86 C1553.64,1108.56 1564.22,1098.17 1570.10,1093.31 C1576.02,1088.44 1589.06,1079.61 1594.09,1077.05 C1600.36,1073.90 1615.93,1068.83 1623.39,1067.51 C1627.10,1066.86 1635.41,1066.04 1638.15,1066.03 Z" fill="none" stroke="rgb(64, 60, 58)" stroke-width="120.00" stroke-opacity="1.00" stroke-linejoin="round"/>
<path d="M1095.00,744.00 C1093.93,745.27 1092.87,745.82 1091.33,745.50 C1088.77,744.95 1081.77,741.55 1079.99,740.49 C1076.96,738.66 1071.73,733.94 1069.16,730.87 C1066.72,727.91 1063.94,721.94 1063.58,718.86 C1063.32,716.24 1064.73,710.56 1066.52,707.59 C1068.63,704.18 1072.86,699.58 1076.27,696.96 C1079.16,694.79 1085.24,691.68 1088.05,690.70 C1091.13,689.66 1098.09,688.40 1101.82,688.59 C1105.90,688.83 1112.32,690.64 1115.92,692.32 C1119.43,693.99 1124.72,697.75 1127.60,700.60 C1130.52,703.55 1134.13,708.54 1135.53,711.91 C1136.74,714.93 1137.73,721.41 1137.64,724.38 C1137.51,727.72 1136.00,735.27 1134.42,738.49 C1133.50,740.29 1131.51,743.04 1130.21,744.19 C1127.95,746.14 1119.92,749.74 1116.81,750.61 C1115.05,751.07 1112.37,751.42 1110.87,751.33 C1108.68,751.18 1103.36,749.68 1102.30,749.38" fill="none" stroke="rgb(64, 60, 58)" stroke-width="25.00" stroke-opacity="1.00" stroke-linejoin="round"/>
<path d="M1149.00,742.50 C1149.40,744.93 1150.33,746.39 1152.33,747.44 C1154.16,748.36 1161.19,748.50 1163.99,746.96 C1165.34,746.18 1167.54,743.07 1168.09,741.47 C1168.92,738.80 1167.62,732.76 1166.04,730.22 C1165.27,729.05 1163.01,726.77 1161.93,726.11 C1160.70,725.41 1157.86,724.89 1156.69,725.25 C1155.54,725.65 1152.67,727.99 1151.87,729.07 C1151.37,729.79 1150.54,732.16 1150.53,733.05 C1150.59,735.22 1151.15,737.38 1152.01,738.57 C1153.62,740.68 1156.69,742.45 1159.01,742.87 C1160.96,743.20 1166.30,742.60 1168.44,741.05 C1169.81,740.01 1171.19,737.42 1171.04,735.99 C1170.84,734.62 1169.20,731.35 1168.11,730.25 C1166.48,728.67 1163.55,727.20 1161.71,726.99 C1161.34,726.97 1158.09,727.40 1157.60,727.65 C1156.08,728.50 1154.01,730.50 1153.36,731.76 C1152.11,734.36 1151.71,739.83 1152.83,742.92 C1154.02,746.02 1158.42,751.12 1161.32,752.76 C1162.94,753.64 1165.68,754.51 1167.34,754.68 C1169.04,754.81 1171.57,754.37 1173.05,753.71 C1174.43,753.04 1176.24,751.53 1176.97,750.43 C1178.23,748.41 1178.38,742.90 1177.29,739.84 C1176.23,736.98 1172.68,732.23 1170.68,730.46 C1168.60,728.69 1163.87,726.95 1161.70,727.29 C1160.48,727.53 1158.78,728.48 1157.92,729.43 C1157.09,730.39 1156.06,732.55 1155.75,734.01 C1155.19,736.88 1157.00,743.85 1158.76,746.31 C1159.79,747.68 1162.13,749.64 1163.91,750.64 C1165.73,751.62 1168.37,752.38 1169.81,752.32 C1172.28,752.14 1177.45,748.41 1178.36,746.19 C1179.23,743.88 1177.97,736.30 1176.45,733.53 C1174.75,730.56 1170.68,726.17 1167.97,724.79 C1166.54,724.09 1163.81,722.99 1163.01,722.91 C1161.69,722.82 1159.85,723.60 1159.09,724.57 C1157.69,726.51 1156.79,732.52 1157.51,735.75 C1158.30,739.02 1162.17,744.97 1164.59,746.56 C1165.26,746.98 1169.08,748.66 1169.97,748.65 C1172.07,748.57 1174.37,747.34 1174.88,746.04 C1175.41,744.50 1175.53,742.98 1175.19,741.77 C1174.50,739.62 1169.53,733.74 1167.55,732.32 C1165.87,731.17 1159.08,729.71 1158.15,730.46 C1157.86,730.70 1155.76,733.43 1154.59,734.84" fill="none" stroke="rgb(64, 60, 58)" stroke-width="25.00" stroke-opacity="1.00" stroke-linejoin="round"/>
<path d="M1186.50,735.00 C1186.80,733.82 1187.05,733.07 1187.25,732.75 C1187.36,732.57 1203.29,720.19 1210.17,714.92 C1216.58,710.16 1230.97,700.05 1235.87,697.24 C1241.20,694.27 1253.88,687.72 1261.24,684.22 C1268.44,680.94 1283.69,675.05 1289.79,673.29 C1296.78,671.29 1310.78,668.38 1316.05,668.07 C1319.87,667.87 1327.91,668.49 1331.42,669.42 C1335.29,670.48 1341.09,673.56 1344.60,676.16 C1347.99,678.70 1352.72,683.60 1355.17,687.09 C1359.34,693.08 1365.50,706.31 1367.07,712.37 C1367.94,715.78 1368.76,721.04 1368.96,724.45 C1369.14,727.93 1368.72,733.63 1368.03,737.12 C1367.28,740.73 1365.09,746.46 1363.14,749.90 C1359.71,755.87 1350.69,766.06 1345.88,770.01 C1340.99,773.99 1332.96,778.66 1324.67,782.26 C1315.93,785.97 1303.73,790.01 1295.88,791.24 C1287.68,792.49 1277.49,793.10 1269.62,792.68 C1260.07,792.14 1247.74,790.05 1241.31,788.51 C1227.34,785.14 1208.36,777.17 1202.05,773.58 C1193.53,768.68 1179.76,755.05 1179.55,754.49 C1179.44,754.19 1179.27,753.44 1179.06,752.22" fill="none" stroke="rgb(64, 60, 58)" stroke-width="25.00" stroke-opacity="1.00" stroke-linejoin="round"/>
<path d="M1201.50,736.50 C1201.50,736.50 1201.50,733.97 1201.50,733.97 C1199.22,743.85 1198.46,750.48 1198.72,756.49 C1198.72,756.49 1200.10,757.12 1200.10,757.12 C1202.13,755.99 1204.10,753.73 1207.19,748.93 C1212.24,740.82 1218.93,726.84 1218.40,725.67 C1214.10,736.49 1212.13,743.49 1211.25,751.17 C1211.03,753.03 1211.26,754.50 1212.04,757.09 C1214.07,756.03 1214.99,755.38 1215.69,754.34 C1217.72,751.29 1224.28,735.89 1226.97,729.05 C1229.60,722.10 1231.06,715.18 1231.24,714.37 C1228.09,722.12 1225.33,730.89 1222.93,741.20 C1220.27,753.69 1219.52,759.55 1219.87,764.21 C1222.34,763.97 1223.60,763.40 1224.87,761.65 C1229.36,755.52 1235.48,745.05 1239.95,736.56 C1244.40,727.69 1248.93,717.20 1250.89,711.07 C1251.56,708.97 1251.42,707.83 1250.66,706.69 C1248.75,708.92 1246.97,712.36 1245.05,717.30 C1242.36,724.61 1236.10,742.82 1235.00,747.77 C1233.70,753.76 1232.93,763.76 1233.60,765.86 C1234.81,765.67 1235.58,765.24 1236.86,763.87 C1241.06,759.36 1248.41,747.13 1252.53,739.34 C1256.01,732.44 1263.35,716.40 1265.48,711.15 C1269.26,701.60 1270.15,694.87 1269.86,692.66 C1268.00,693.93 1265.41,697.50 1263.26,702.18 C1261.27,706.55 1255.04,723.45 1253.05,729.92 C1250.84,737.54 1247.54,752.65 1248.00,757.53 C1248.18,759.36 1248.96,760.26 1250.14,760.65 C1254.24,758.18 1262.22,746.67 1266.83,738.42 C1269.71,733.17 1276.61,718.29 1278.84,712.33 C1280.54,707.71 1282.38,699.90 1281.86,698.40 C1281.75,698.10 1281.40,697.70 1280.81,697.20 C1278.45,698.14 1272.73,703.95 1270.46,706.65 C1266.92,710.88 1260.04,721.50 1255.92,729.00 C1251.44,737.55 1246.47,748.49 1244.77,753.79 C1243.75,757.02 1241.89,765.46 1241.85,765.90 C1241.71,768.00 1242.40,771.23 1243.35,771.97 C1244.16,772.56 1246.05,772.30 1247.10,771.67 C1251.66,768.73 1260.99,759.47 1266.01,752.62 C1270.52,746.42 1277.70,734.74 1280.89,728.52 C1284.19,722.04 1290.47,705.93 1291.90,699.73 C1292.82,695.57 1292.89,690.70 1292.06,688.05 C1289.38,688.55 1286.01,691.53 1283.66,695.23 C1280.31,700.63 1274.45,712.64 1270.94,720.63 C1268.88,725.55 1263.03,741.30 1261.17,747.95 C1255.54,768.18 1256.91,773.40 1257.64,774.90 C1259.31,774.64 1260.42,774.26 1261.41,773.42 C1264.82,770.48 1273.17,759.23 1278.03,751.41 C1282.58,743.84 1289.37,730.69 1292.72,723.66 C1295.78,716.99 1300.89,702.22 1302.15,696.93 C1302.95,693.50 1302.35,690.23 1301.96,689.17 C1299.77,689.87 1296.73,692.53 1294.48,695.75 C1291.71,699.77 1283.66,714.86 1281.22,720.41 C1274.56,735.67 1268.78,757.23 1267.88,763.48 C1267.55,765.82 1266.93,772.37 1267.76,775.09 C1269.20,775.90 1270.98,775.70 1272.67,774.26 C1275.49,771.84 1284.99,758.06 1288.70,751.41 C1292.21,744.90 1299.42,730.18 1301.68,725.03 C1304.56,718.36 1309.34,703.29 1310.49,698.90 C1312.89,689.71 1312.79,683.97 1312.61,682.50 C1310.59,683.99 1308.05,687.88 1306.17,692.35 C1304.36,696.75 1298.69,712.67 1296.37,719.89 C1291.50,736.29 1285.71,761.77 1285.38,770.08 C1285.32,771.81 1285.77,772.60 1287.04,773.51 C1288.89,772.44 1289.81,771.66 1291.00,769.97 C1296.04,763.00 1301.60,753.39 1306.46,743.89 C1315.29,725.50 1321.06,708.49 1322.26,703.07 C1323.05,699.42 1322.92,695.68 1322.17,693.34 C1319.87,694.74 1316.86,698.57 1314.57,703.40 C1311.92,709.11 1307.48,721.80 1304.83,730.57 C1302.07,740.30 1299.33,755.11 1299.32,760.84 C1299.35,764.51 1299.91,765.95 1300.91,767.55 C1301.97,767.90 1303.33,767.36 1304.81,765.79 C1308.83,761.48 1315.74,747.83 1318.39,741.19 C1320.49,735.85 1324.77,722.24 1326.78,713.96 C1328.71,705.47 1329.74,695.58 1329.49,689.74 C1329.49,689.74 1327.84,689.55 1327.84,689.55 C1324.90,695.36 1321.78,707.84 1319.71,716.81 C1317.83,725.34 1314.74,741.00 1314.14,748.33 C1313.37,758.90 1314.17,763.29 1314.82,765.30 C1315.78,765.93 1317.31,765.52 1318.91,763.99 C1321.87,761.11 1328.70,746.98 1331.10,740.66 C1333.20,735.11 1337.76,719.99 1338.71,714.22 C1339.20,711.13 1339.37,707.45 1339.42,703.20 C1339.42,703.20 1337.40,702.52 1337.40,702.52 C1334.47,708.05 1330.82,722.24 1329.71,730.14 C1329.12,734.47 1328.46,742.57 1328.54,746.11 C1328.65,749.79 1330.54,753.98 1331.44,755.44 C1332.59,755.44 1334.48,754.92 1335.56,754.09 C1336.77,753.13 1340.81,745.85 1342.20,742.46 C1344.70,736.31 1347.53,722.22 1347.59,716.56 C1347.61,713.81 1347.01,710.94 1346.74,709.99 C1346.74,709.99 1345.31,710.06 1345.31,710.06 C1343.54,719.11 1342.91,729.49 1343.57,738.68 C1343.84,742.26 1345.15,745.88 1345.76,746.92 C1347.80,747.44 1348.97,747.29 1349.93,746.10 C1351.84,743.70 1353.98,738.49 1354.46,735.18 C1354.96,731.42 1354.92,726.41 1354.35,723.14 C1353.83,720.27 1351.92,714.08 1350.87,711.49 C1349.58,708.34 1346.82,703.56 1344.31,700.23 C1342.55,697.91 1337.12,691.25 1335.38,689.90 C1334.58,689.29 1333.37,689.13 1331.36,689.15 C1330.41,690.78 1330.21,692.24 1330.78,694.66 C1331.00,695.58 1331.22,696.50 1331.44,697.42 C1331.44,697.42 1333.16,697.69 1333.16,697.69 C1333.16,697.69 1332.38,693.05 1332.38,693.05" fill="none" stroke="rgb(64, 60, 58)" stroke-width="25.00" stroke-opacity="1.00" stroke-linejoin="round"/>
<path d="M1101.00,705.00 C1100.55,705.04 1099.92,704.84 1099.65,704.25 C1099.27,703.49 1097.55,700.87 1095.55,700.18 C1093.63,699.55 1090.98,699.61 1089.92,700.26 C1088.60,701.17 1086.84,702.81 1085.93,704.04 C1084.74,705.73 1083.83,708.64 1083.80,710.97 C1083.82,714.82 1086.64,722.70 1088.63,725.09 C1089.77,726.38 1091.89,727.56 1093.30,727.66 C1094.77,727.70 1097.08,726.72 1098.62,725.45 C1099.91,724.34 1102.00,721.88 1102.77,720.57 C1104.23,717.96 1104.93,710.81 1104.03,708.28 C1103.55,707.04 1102.15,704.96 1101.19,704.05 C1100.09,703.06 1098.05,702.14 1096.69,702.06 C1095.28,702.03 1093.29,702.95 1092.47,704.09 C1091.06,706.19 1090.15,712.95 1090.35,714.97 C1090.57,716.99 1091.62,720.81 1092.45,722.40 C1093.27,723.90 1095.73,726.62 1096.95,727.35 C1098.23,728.06 1101.54,728.54 1102.84,728.17 C1104.08,727.78 1106.95,725.56 1107.97,724.31 C1109.77,722.01 1111.82,714.62 1111.31,712.91 C1111.15,712.38 1110.60,711.24 1109.66,709.50 C1109.66,709.50 1107.52,709.99 1107.52,709.99 C1106.40,712.83 1105.66,718.31 1106.44,722.59 C1106.81,724.49 1108.26,728.59 1109.06,730.01 C1109.87,731.37 1112.00,733.37 1113.04,733.72 C1114.07,734.03 1116.79,733.62 1117.80,733.05 C1119.82,731.80 1122.32,726.18 1122.60,722.85 C1122.78,720.26 1121.10,713.87 1120.15,712.98 C1119.84,712.70 1119.06,712.20 1117.80,711.49 C1116.61,712.87 1116.23,713.90 1116.47,715.82 C1117.06,720.54 1118.39,724.27 1120.05,725.32 C1122.12,726.55 1124.20,726.79 1125.30,725.74 C1126.18,724.82 1126.49,722.00 1125.94,720.26 C1125.34,718.47 1123.82,717.25 1122.00,716.66 C1120.21,718.76 1119.58,720.36 1119.90,722.60 C1120.02,723.46 1120.14,724.31 1120.26,725.16" fill="none" stroke="rgb(64, 60, 58)" stroke-width="25.00" stroke-opacity="1.00" stroke-linejoin="round"/>
<path d="M1087.50,694.50 C1087.51,694.41 1082.66,676.66 1081.90,674.88 C1080.88,672.57 1076.51,664.50 1075.62,663.00 C1073.57,659.58 1069.31,654.22 1066.82,651.94 C1064.74,650.05 1058.98,645.95 1055.87,644.37 C1054.02,643.44 1045.08,639.75 1043.21,639.26 C1041.13,638.73 1032.00,638.53 1029.48,638.96 C1026.41,639.52 1018.83,642.83 1015.65,644.97 C1012.10,647.40 1007.75,652.14 1005.51,655.68 C1003.43,659.03 1000.99,664.52 1000.05,667.98 C999.18,671.29 998.25,677.87 998.07,681.85 C997.79,688.93 1001.08,705.51 1002.85,710.28 C1004.31,714.14 1011.59,725.27 1015.57,728.93 C1017.33,730.54 1023.78,735.51 1026.29,737.05 C1028.92,738.64 1035.22,741.40 1037.62,742.10 C1040.96,743.04 1048.73,744.00 1052.22,743.94 C1055.98,743.84 1061.86,742.90 1065.51,741.95 C1069.32,740.92 1074.66,738.69 1078.75,736.24 C1082.12,734.18 1087.90,729.59 1088.67,727.90 C1089.32,726.36 1088.03,719.87 1087.42,716.74 C1085.56,706.81 1082.58,696.30 1079.05,687.72 C1078.24,685.77 1076.50,682.92 1075.30,681.74 C1074.36,680.86 1071.87,680.28 1070.68,680.47 C1069.33,680.75 1067.15,682.19 1065.84,683.69 C1063.52,686.43 1060.84,692.71 1060.09,695.36 C1059.38,697.88 1058.48,703.92 1058.68,707.08 C1058.80,708.85 1059.56,710.04 1061.10,711.37 C1063.03,710.08 1064.13,708.87 1064.61,707.08 C1065.50,703.73 1065.64,696.47 1065.34,693.41 C1064.98,690.09 1063.34,683.68 1061.89,680.41 C1061.13,678.81 1059.46,675.34 1059.11,674.85 C1058.00,673.37 1055.32,671.78 1053.67,671.74 C1052.24,671.74 1049.95,673.57 1048.65,675.45 C1047.52,677.17 1044.26,684.67 1043.42,688.04 C1041.76,694.88 1041.80,705.05 1042.16,706.54 C1042.74,708.84 1043.94,710.60 1045.16,711.26 C1046.60,710.66 1048.84,709.36 1049.92,708.34 C1051.31,707.00 1054.11,700.49 1055.05,696.96 C1056.04,693.12 1057.12,686.29 1057.20,682.58 C1057.26,679.13 1056.58,671.53 1055.65,668.11 C1054.60,664.36 1052.11,659.44 1050.64,658.27 C1048.83,656.93 1046.50,656.44 1044.79,657.15 C1043.26,657.83 1038.41,662.86 1036.86,666.00 C1035.49,668.86 1033.20,675.77 1032.41,679.43 C1031.62,683.20 1030.81,690.88 1031.15,694.82 C1031.50,698.60 1032.86,704.36 1033.87,705.90 C1034.27,706.46 1036.02,708.71 1036.46,709.05 C1037.78,709.97 1040.31,710.32 1042.01,709.65 C1045.14,708.35 1049.02,703.69 1049.92,701.10 C1051.09,697.57 1052.34,689.98 1051.92,686.36 C1051.54,683.35 1049.63,676.43 1048.42,673.39 C1045.55,666.35 1039.13,658.03 1037.92,657.07 C1036.29,655.84 1032.64,654.65 1030.72,654.86 C1029.03,655.09 1027.27,656.42 1026.04,658.17 C1023.08,662.62 1021.06,666.91 1020.06,670.45 C1019.19,673.61 1017.95,680.77 1017.57,684.82 C1017.18,689.21 1017.43,695.94 1018.10,699.78 C1018.83,703.76 1020.12,708.08 1021.01,709.05 C1022.34,710.38 1025.08,711.38 1026.75,710.89 C1027.84,710.54 1031.67,707.18 1032.79,705.86 C1034.39,703.89 1037.02,697.02 1037.61,693.73 C1038.15,690.60 1038.58,684.14 1038.14,681.10 C1037.67,678.13 1035.54,672.47 1033.87,669.74 C1033.00,668.37 1031.01,666.78 1029.48,666.28 C1028.05,665.86 1025.23,666.32 1023.89,667.17 C1021.49,668.81 1017.80,675.09 1016.85,678.22 C1016.15,680.62 1015.24,688.32 1015.31,691.31 C1015.41,694.33 1016.71,700.98 1017.71,703.84 C1018.75,706.72 1022.26,713.43 1023.86,715.35 C1025.13,716.83 1027.54,718.92 1029.45,720.22 C1031.15,721.32 1034.23,722.60 1036.25,722.98 C1038.15,723.31 1041.73,722.96 1043.64,722.30 C1045.61,721.56 1047.96,719.78 1049.10,718.17 C1050.08,716.71 1051.04,714.01 1051.17,712.43 C1051.32,709.60 1048.76,703.07 1046.70,701.02 C1045.53,699.92 1043.50,698.94 1042.19,698.83 C1040.93,698.78 1039.06,699.49 1038.22,700.38 C1036.58,702.24 1035.63,709.38 1036.18,712.56 C1036.87,716.21 1039.31,722.08 1041.64,724.24 C1042.86,725.32 1046.34,727.15 1047.79,727.46 C1049.15,727.72 1052.52,727.38 1053.86,726.94 C1056.51,725.97 1060.11,721.98 1060.84,719.47 C1061.37,717.47 1060.42,712.61 1059.22,710.81 C1058.85,710.28 1056.51,707.72 1055.81,707.29 C1053.98,706.20 1051.40,706.24 1050.19,707.40 C1048.92,708.71 1049.18,713.78 1050.45,716.21 C1051.16,717.48 1053.29,719.74 1054.42,720.30 C1054.86,720.50 1064.02,722.23 1067.10,722.79" fill="none" stroke="rgb(64, 60, 58)" stroke-width="25.00" stroke-opacity="1.00" stroke-linejoin="round"/>
<path d="M1029.00,652.50 C1029.00,652.50 1029.00,654.00 1029.00,654.00 C1029.03,653.34 1022.11,650.17 1019.73,648.89 C1014.16,645.87 1001.09,635.21 995.38,630.52 C984.26,621.21 948.38,584.06 946.87,582.45 C946.87,582.45 942.83,602.10 942.83,602.10" fill="none" stroke="rgb(64, 60, 58)" stroke-width="12.00" stroke-opacity="1.00" stroke-linejoin="round"/>
<path d="M1032.00,655.50 C1032.00,655.50 1032.00,657.00 1032.00,657.00 C1030.41,655.40 1027.12,652.26 1024.64,648.85 C1023.20,646.85 1013.71,631.06 1010.26,624.16 C1007.20,618.04 1000.53,602.23 997.75,594.41 C995.38,587.16 991.39,574.77 990.07,568.51 C989.42,565.30 988.18,559.31 987.61,556.53" fill="none" stroke="rgb(64, 60, 58)" stroke-width="12.00" stroke-opacity="1.00" stroke-linejoin="round"/>
<path d="M979.50,577.50 C979.50,577.50 978.00,577.50 978.00,577.50 C977.93,577.27 977.93,577.05 978.00,576.83 C978.07,576.61 982.82,565.90 983.40,564.73 C984.51,562.49 985.83,560.04 986.52,558.93" fill="none" stroke="rgb(64, 60, 58)" stroke-width="12.00" stroke-opacity="1.00" stroke-linejoin="round"/>
<path d="M1470.00,789.00 C1470.00,789.00 1470.00,786.25 1470.00,786.25 C1470.84,791.50 1471.49,804.85 1471.45,813.75 C1471.12,828.33 1470.59,858.51 1470.40,874.12 C1470.79,905.69 1472.20,971.39 1472.82,974.78 C1472.82,974.78 1472.98,973.94 1472.98,973.94" fill="none" stroke="rgb(64, 60, 58)" stroke-width="20.00" stroke-opacity="1.00" stroke-linejoin="round"/>
<path d="M1530.00,787.50 C1530.00,787.50 1530.00,786.00 1530.00,786.00 C1531.05,788.03 1531.38,789.09 1531.45,791.03 C1532.33,806.05 1532.94,839.11 1533.00,854.98 C1532.87,875.99 1535.89,970.60 1536.00,978.16 C1536.15,964.09 1536.67,933.00 1537.37,915.61 C1537.87,907.69 1538.95,893.04 1539.52,886.31 C1540.72,875.58 1543.21,860.04 1544.09,855.89 C1546.17,846.61 1549.28,835.44 1552.34,827.84 C1555.48,820.13 1564.23,806.33 1568.81,801.58 C1571.36,798.98 1577.99,794.13 1580.47,793.05 C1582.37,792.24 1589.46,791.02 1590.58,791.20 C1591.77,791.41 1599.17,795.21 1601.62,797.89 C1604.47,801.08 1610.81,815.79 1613.03,823.48 C1616.96,837.22 1620.65,861.02 1622.67,882.37 C1623.81,898.06 1623.89,929.55 1623.71,945.04 C1623.47,954.57 1623.12,968.52 1623.00,972.93 C1622.99,973.14 1622.99,973.32 1623.00,973.46" fill="none" stroke="rgb(64, 60, 58)" stroke-width="20.00" stroke-opacity="1.00" stroke-linejoin="round"/>
<path d="M1677.00,796.50 C1677.00,796.50 1677.00,795.00 1677.00,795.00 C1675.81,797.04 1675.48,798.11 1675.52,800.14 C1675.53,800.51 1674.49,848.51 1674.18,866.61 C1673.75,893.09 1675.00,948.00 1675.55,970.25 C1675.55,970.25 1676.67,969.52 1676.67,969.52" fill="none" stroke="rgb(64, 60, 58)" stroke-width="20.00" stroke-opacity="1.00" stroke-linejoin="round"/>
<path d="M1470.00,729.00 C1470.00,729.00 1466.78,728.13 1466.78,728.13 C1464.96,730.63 1465.62,732.82 1466.22,733.42 C1466.22,733.42 1468.28,733.13 1468.28,733.13 C1468.28,733.13 1468.44,730.48 1468.44,730.48 C1468.44,730.48 1466.94,730.02 1466.94,730.02 C1466.94,730.02 1465.78,731.68 1465.78,731.68 C1465.78,731.68 1466.63,731.93 1466.63,731.93" fill="none" stroke="rgb(64, 60, 58)" stroke-width="20.00" stroke-opacity="1.00" stroke-linejoin="round"/>
<path d="M1666.50,742.50 C1666.50,742.50 1665.00,741.00 1665.00,741.00 C1665.00,741.00 1665.00,743.32 1665.00,743.32 C1665.00,743.32 1667.63,745.00 1667.63,745.00 C1667.63,745.00 1669.50,742.96 1669.50,742.96 C1669.50,742.96 1667.23,738.58 1667.23,738.58 C1667.23,738.58 1665.89,739.25 1665.89,739.25 C1665.89,739.25 1665.73,742.35 1665.73,742.35 C1665.73,742.35 1668.15,743.29 1668.15,743.29 C1668.15,743.29 1668.94,741.67 1668.94,741.67 C1668.94,741.67 1667.18,741.02 1667.18,741.02" fill="none" stroke="rgb(64, 60, 58)" stroke-width="20.00" stroke-opacity="1.00" stroke-linejoin="round"/>
<path d="M1011.11,679.26 C1011.11,679.26 1011.11,678.52 1011.11,678.52 C1011.11,678.52 1010.37,677.87 1010.37,677.87 C1009.71,679.24 1009.51,680.37 1009.91,681.38 C1010.29,682.28 1011.25,683.41 1011.80,683.59 C1012.09,683.66 1013.38,683.34 1013.66,682.84 C1015.36,679.64 1013.13,676.49 1012.43,676.19 C1011.08,677.26 1010.37,678.11 1010.53,679.09 C1010.59,679.44 1010.82,680.40 1011.23,681.98 C1011.23,681.98 1012.89,681.50 1012.89,681.50 C1013.71,679.71 1013.21,677.46 1011.94,676.74 C1010.89,677.86 1010.45,678.86 1010.72,679.95 C1010.98,681.04 1011.63,681.73 1012.56,682.11 C1013.95,681.55 1014.72,678.72 1013.65,677.37 C1013.17,676.79 1012.28,676.48 1011.50,676.46 C1011.50,676.46 1012.09,679.76 1012.09,679.76" fill="none" stroke="rgb(255, 255, 255)" stroke-width="10.00" stroke-opacity="1.00" stroke-linejoin="round"/>
<path d="M1108.53,741.75 C1108.53,741.75 1108.53,740.73 1108.53,740.73 C1108.53,740.73 1109.56,739.70 1109.56,739.70 C1104.80,745.84 1094.73,759.00 1090.34,764.99 C1089.61,765.97 1086.94,769.55 1084.78,774.41 C1078.23,790.18 1066.17,819.62 1061.45,831.93 C1056.35,846.37 1045.82,877.11 1040.38,893.40 C1035.47,909.55 1026.38,940.28 1022.21,954.87 C1020.58,961.06 1016.91,975.09 1014.87,982.94 C1014.42,984.65 1013.66,987.57 1013.34,988.76" fill="none" stroke="rgb(64, 60, 58)" stroke-width="20.00" stroke-opacity="1.00" stroke-linejoin="round"/>
<path d="M1116.73,743.80 C1116.73,743.80 1115.70,736.74 1115.70,736.74 C1123.50,766.22 1142.47,836.15 1148.93,856.90 C1158.35,885.25 1173.68,930.35 1178.17,941.93 C1184.31,957.14 1190.27,969.53 1192.48,974.13" fill="none" stroke="rgb(64, 60, 58)" stroke-width="20.00" stroke-opacity="1.00" stroke-linejoin="round"/>
<path d="M1267.33,778.64 C1267.33,778.64 1268.36,774.78 1268.36,774.78 C1267.24,784.05 1260.59,818.35 1257.36,832.59 C1252.90,850.61 1246.21,872.61 1239.63,891.66 C1237.23,898.18 1231.43,913.25 1229.02,918.19 C1222.19,931.68 1211.15,953.28 1209.34,956.62 C1208.35,958.42 1201.54,969.88 1199.94,972.57" fill="none" stroke="rgb(64, 60, 58)" stroke-width="20.00" stroke-opacity="1.00" stroke-linejoin="round"/>
<path d="M1314.46,768.39 C1314.46,768.39 1312.41,763.62 1312.41,763.62 C1313.39,765.40 1327.00,807.17 1332.51,824.05 C1337.04,837.14 1345.84,862.07 1351.99,877.96 C1358.02,892.53 1370.74,922.54 1377.44,937.99 C1380.88,945.44 1387.48,959.38 1390.52,965.36 C1394.83,973.47 1400.86,983.62 1402.21,985.91" fill="none" stroke="rgb(64, 60, 58)" stroke-width="20.00" stroke-opacity="1.00" stroke-linejoin="round"/>
</g>
</svg>
